
      <svg data-logo="logo" xmlns="http://www.w3.org/2000/svg" viewBox="0 0 241 42">
        <g id="logogram" transform="translate(0, 1) rotate(0) "><path d="M15 0L20.4545 5.33333L0 25.3333V14.6667L15 0Z" fill="white"/><path d="M2.90827 28.177L15 40L30 25.3334V14.6667L20.4545 5.33337L0 25.3334L0.0041688 25.3375L20.4545 5.33337V20.6667L11.25 29.6667V20.1324L2.90827 28.177Z" fill="white"/></g>
        <g id="logotype" transform="translate(36, 1)"><path fill="#ffff" d="M19.86 34.49L19.86 34.49Q13.95 34.49 10.85 31.20Q7.75 27.91 7.75 21.85L7.75 21.85Q7.75 18.84 8.70 16.48Q9.64 14.12 11.29 12.49Q12.93 10.86 15.21 10.02Q17.48 9.18 20.14 9.18L20.14 9.18Q21.68 9.18 22.94 9.41Q24.20 9.64 25.15 9.94Q26.09 10.23 26.72 10.55Q27.35 10.86 27.63 11.04L27.63 11.04L26.06 15.45Q24.94 14.85 23.45 14.43Q21.96 14.01 20.07 14.01L20.07 14.01Q18.81 14.01 17.60 14.43Q16.40 14.85 15.47 15.78Q14.54 16.71 13.98 18.18Q13.42 19.65 13.42 21.75L13.42 21.75Q13.42 23.43 13.79 24.88Q14.16 26.34 14.98 27.38Q15.80 28.43 17.13 29.05Q18.46 29.66 20.35 29.66L20.35 29.66Q21.54 29.66 22.49 29.52Q23.43 29.38 24.17 29.19Q24.90 28.99 25.46 28.75Q26.02 28.50 26.48 28.29L26.48 28.29L27.98 32.67Q26.83 33.37 24.73 33.93Q22.63 34.49 19.86 34.49ZM38.52 30.36L38.52 30.36Q39.29 30.36 39.99 30.32Q40.69 30.29 41.11 30.22L41.11 30.22L41.11 26.27Q40.79 26.20 40.16 26.13Q39.53 26.05 39.01 26.05L39.01 26.05Q38.27 26.05 37.62 26.14Q36.98 26.23 36.49 26.48Q36.00 26.72 35.72 27.14Q35.44 27.56 35.44 28.19L35.44 28.19Q35.44 29.41 36.26 29.89Q37.08 30.36 38.52 30.36ZM38.10 15.10L38.10 15.10Q40.41 15.10 41.95 15.63Q43.49 16.15 44.41 17.13Q45.34 18.11 45.73 19.51Q46.11 20.91 46.11 22.63L46.11 22.63L46.11 33.48Q44.99 33.72 43.00 34.05Q41.00 34.38 38.17 34.38L38.17 34.38Q36.38 34.38 34.93 34.07Q33.48 33.76 32.43 33.04Q31.38 32.32 30.82 31.16Q30.26 30.01 30.26 28.33L30.26 28.33Q30.26 26.72 30.90 25.60Q31.55 24.48 32.64 23.81Q33.72 23.15 35.12 22.85Q36.52 22.55 38.03 22.55L38.03 22.55Q39.04 22.55 39.83 22.64Q40.62 22.73 41.11 22.87L41.11 22.87L41.11 22.38Q41.11 21.05 40.30 20.24Q39.50 19.44 37.50 19.44L37.50 19.44Q36.17 19.44 34.88 19.63Q33.58 19.82 32.64 20.17L32.64 20.17L31.97 15.97Q32.43 15.83 33.11 15.68Q33.79 15.52 34.60 15.40Q35.40 15.27 36.29 15.19Q37.19 15.10 38.10 15.10ZM58.92 30.04L58.19 34.35Q55.91 34.31 54.49 33.86Q53.08 33.41 52.25 32.58Q51.43 31.76 51.13 30.59Q50.84 29.41 50.84 27.95L50.84 27.95L50.84 7.68L56.05 6.84L56.05 26.89Q56.05 27.59 56.16 28.16Q56.26 28.71 56.56 29.10Q56.86 29.48 57.42 29.73Q57.98 29.98 58.92 30.04L58.92 30.04ZM61.02 24.80L61.02 24.80Q61.02 22.80 61.67 21.03Q62.32 19.27 63.54 17.95Q64.77 16.64 66.52 15.87Q68.27 15.10 70.51 15.10L70.51 15.10Q71.98 15.10 73.20 15.36Q74.43 15.63 75.58 16.11L75.58 16.11L74.50 20.28Q73.76 20 72.89 19.79Q72.01 19.58 70.93 19.58L70.93 19.58Q68.62 19.58 67.48 21.02Q66.34 22.45 66.34 24.80L66.34 24.80Q66.34 27.28 67.41 28.64Q68.48 30.01 71.14 30.01L71.14 30.01Q72.08 30.01 73.17 29.84Q74.25 29.66 75.16 29.27L75.16 29.27L75.90 33.55Q74.99 33.93 73.62 34.21Q72.26 34.49 70.61 34.49L70.61 34.49Q68.09 34.49 66.27 33.74Q64.45 32.98 63.28 31.69Q62.11 30.39 61.56 28.63Q61.02 26.86 61.02 24.80ZM95.11 15.59L95.11 33.37Q93.78 33.76 91.68 34.09Q89.58 34.42 87.27 34.42L87.27 34.42Q84.93 34.42 83.37 33.79Q81.81 33.16 80.90 32.02Q79.99 30.88 79.61 29.31Q79.22 27.73 79.22 25.84L79.22 25.84L79.22 15.59L84.44 15.59L84.44 25.21Q84.44 27.73 85.10 28.86Q85.77 29.98 87.59 29.98L87.59 29.98Q88.15 29.98 88.78 29.92Q89.41 29.87 89.90 29.80L89.90 29.80L89.90 15.59L95.11 15.59ZM108.09 30.04L107.36 34.35Q105.09 34.31 103.67 33.86Q102.25 33.41 101.43 32.58Q100.61 31.76 100.31 30.59Q100.01 29.41 100.01 27.95L100.01 27.95L100.01 7.68L105.23 6.84L105.23 26.89Q105.23 27.59 105.33 28.16Q105.44 28.71 105.73 29.10Q106.03 29.48 106.59 29.73Q107.15 29.98 108.09 30.04L108.09 30.04ZM118.63 30.36L118.63 30.36Q119.40 30.36 120.10 30.32Q120.80 30.29 121.22 30.22L121.22 30.22L121.22 26.27Q120.91 26.20 120.28 26.13Q119.65 26.05 119.12 26.05L119.12 26.05Q118.39 26.05 117.74 26.14Q117.09 26.23 116.60 26.48Q116.11 26.72 115.83 27.14Q115.55 27.56 115.55 28.19L115.55 28.19Q115.55 29.41 116.37 29.89Q117.20 30.36 118.63 30.36ZM118.21 15.10L118.21 15.10Q120.52 15.10 122.06 15.63Q123.60 16.15 124.53 17.13Q125.46 18.11 125.84 19.51Q126.23 20.91 126.23 22.63L126.23 22.63L126.23 33.48Q125.11 33.72 123.11 34.05Q121.12 34.38 118.28 34.38L118.28 34.38Q116.50 34.38 115.04 34.07Q113.59 33.76 112.54 33.04Q111.49 32.32 110.93 31.16Q110.37 30.01 110.37 28.33L110.37 28.33Q110.37 26.72 111.02 25.60Q111.67 24.48 112.75 23.81Q113.84 23.15 115.24 22.85Q116.64 22.55 118.14 22.55L118.14 22.55Q119.16 22.55 119.94 22.64Q120.73 22.73 121.22 22.87L121.22 22.87L121.22 22.38Q121.22 21.05 120.42 20.24Q119.61 19.44 117.62 19.44L117.62 19.44Q116.29 19.44 114.99 19.63Q113.70 19.82 112.75 20.17L112.75 20.17L112.09 15.97Q112.54 15.83 113.22 15.68Q113.91 15.52 114.71 15.40Q115.52 15.27 116.41 15.19Q117.30 15.10 118.21 15.10ZM148.49 34L131.30 34L131.30 9.74L147.68 9.74L147.68 14.33L136.76 14.33L136.76 19.09L146.46 19.09L146.46 23.57L136.76 23.57L136.76 29.41L148.49 29.41L148.49 34ZM158.78 30.36L158.78 30.36Q159.55 30.36 160.25 30.32Q160.95 30.29 161.37 30.22L161.37 30.22L161.37 26.27Q161.05 26.20 160.42 26.13Q159.79 26.05 159.27 26.05L159.27 26.05Q158.53 26.05 157.88 26.14Q157.24 26.23 156.75 26.48Q156.26 26.72 155.98 27.14Q155.70 27.56 155.70 28.19L155.70 28.19Q155.70 29.41 156.52 29.89Q157.34 30.36 158.78 30.36ZM158.36 15.10L158.36 15.10Q160.67 15.10 162.21 15.63Q163.75 16.15 164.67 17.13Q165.60 18.11 165.99 19.51Q166.37 20.91 166.37 22.63L166.37 22.63L166.37 33.48Q165.25 33.72 163.26 34.05Q161.26 34.38 158.43 34.38L158.43 34.38Q156.64 34.38 155.19 34.07Q153.74 33.76 152.69 33.04Q151.64 32.32 151.08 31.16Q150.52 30.01 150.52 28.33L150.52 28.33Q150.52 26.72 151.16 25.60Q151.81 24.48 152.90 23.81Q153.98 23.15 155.38 22.85Q156.78 22.55 158.29 22.55L158.29 22.55Q159.30 22.55 160.09 22.64Q160.88 22.73 161.37 22.87L161.37 22.87L161.37 22.38Q161.37 21.05 160.56 20.24Q159.76 19.44 157.76 19.44L157.76 19.44Q156.43 19.44 155.14 19.63Q153.84 19.82 152.90 20.17L152.90 20.17L152.23 15.97Q152.69 15.83 153.37 15.68Q154.05 15.52 154.86 15.40Q155.66 15.27 156.55 15.19Q157.45 15.10 158.36 15.10ZM176.38 30.25L176.38 30.25Q177.81 30.25 178.41 29.98Q179.01 29.70 179.01 28.89L179.01 28.89Q179.01 28.26 178.24 27.79Q177.47 27.31 175.89 26.72L175.89 26.72Q174.67 26.27 173.67 25.77Q172.67 25.28 171.97 24.60Q171.27 23.92 170.89 22.98Q170.50 22.03 170.50 20.70L170.50 20.70Q170.50 18.11 172.43 16.60Q174.35 15.10 177.71 15.10L177.71 15.10Q179.39 15.10 180.93 15.40Q182.47 15.69 183.38 16.04L183.38 16.04L182.47 20.10Q181.56 19.79 180.49 19.54Q179.43 19.30 178.09 19.30L178.09 19.30Q175.65 19.30 175.65 20.66L175.65 20.66Q175.65 20.98 175.75 21.23Q175.86 21.47 176.17 21.70Q176.49 21.92 177.03 22.19Q177.57 22.45 178.41 22.77L178.41 22.77Q180.13 23.39 181.25 24.01Q182.37 24.62 183.01 25.34Q183.66 26.05 183.92 26.93Q184.19 27.80 184.19 28.96L184.19 28.96Q184.19 31.69 182.14 33.09Q180.09 34.49 176.34 34.49L176.34 34.49Q173.90 34.49 172.27 34.07Q170.64 33.65 170.01 33.37L170.01 33.37L170.89 29.13Q172.22 29.66 173.62 29.96Q175.02 30.25 176.38 30.25ZM199.03 15.59L204.42 15.59Q202.84 20.91 201.13 25.56Q199.41 30.22 197.38 34.59L197.38 34.59Q196.65 36.17 195.91 37.27Q195.18 38.38 194.30 39.09Q193.43 39.81 192.32 40.14Q191.22 40.48 189.75 40.48L189.75 40.48Q188.53 40.48 187.49 40.25Q186.46 40.02 185.80 39.74L185.80 39.74L186.71 35.58Q187.51 35.85 188.14 35.96Q188.77 36.06 189.47 36.06L189.47 36.06Q190.87 36.06 191.62 35.31Q192.38 34.56 192.90 33.23L192.90 33.23Q191.12 29.73 189.33 25.37Q187.55 21.02 185.97 15.59L185.97 15.59L191.50 15.59Q191.85 16.95 192.32 18.55Q192.80 20.14 193.32 21.77Q193.84 23.39 194.39 24.93Q194.93 26.48 195.42 27.73L195.42 27.73Q195.88 26.48 196.37 24.93Q196.86 23.39 197.33 21.77Q197.80 20.14 198.24 18.55Q198.68 16.95 199.03 15.59L199.03 15.59Z"/></g>
        
      </svg>
    